<svg width="24" height="24" viewBox="0 0 24 24" fill="none" xmlns="http://www.w3.org/2000/svg">
<path d="M12 9C11.2044 9 10.4413 8.68393 9.87868 8.12132C9.31607 7.55871 9 6.79565 9 6C9 5.20435 9.31607 4.44129 9.87868 3.87868C10.4413 3.31607 11.2044 3 12 3C12.7956 3 13.5587 3.31607 14.1213 3.87868C14.6839 4.44129 15 5.20435 15 6C15 6.79565 14.6839 7.55871 14.1213 8.12132C13.5587 8.68393 12.7956 9 12 9ZM5.5 21C4.70435 21 3.94129 20.6839 3.37868 20.1213C2.81607 19.5587 2.5 18.7956 2.5 18C2.5 17.2044 2.81607 16.4413 3.37868 15.8787C3.94129 15.3161 4.70435 15 5.5 15C6.29565 15 7.05871 15.3161 7.62132 15.8787C8.18393 16.4413 8.5 17.2044 8.5 18C8.5 18.7956 8.18393 19.5587 7.62132 20.1213C7.05871 20.6839 6.29565 21 5.5 21ZM18.5 21C17.7044 21 16.9413 20.6839 16.3787 20.1213C15.8161 19.5587 15.5 18.7956 15.5 18C15.5 17.2044 15.8161 16.4413 16.3787 15.8787C16.9413 15.3161 17.7044 15 18.5 15C19.2956 15 20.0587 15.3161 20.6213 15.8787C21.1839 16.4413 21.5 17.2044 21.5 18C21.5 18.7956 21.1839 19.5587 20.6213 20.1213C20.0587 20.6839 19.2956 21 18.5 21Z" stroke="#1C74F2" stroke-width="1.5"/>
<path opacity="0.5" d="M20 13C20.0014 11.8648 19.7605 10.7424 19.2935 9.70776C18.8265 8.67309 18.1442 7.74995 17.292 7M4.00001 13C3.99866 11.8648 4.23952 10.7424 4.7065 9.70776C5.17348 8.67309 5.85584 7.74995 6.70801 7M10 20.748C10.6534 20.916 11.3254 21.0007 12 21C12.6746 21.0007 13.3466 20.916 14 20.748" stroke="#1C74F2" stroke-width="1.5" stroke-linecap="round"/>
</svg>
