<svg width="116" height="105" viewBox="0 0 116 105" fill="none" xmlns="http://www.w3.org/2000/svg">
<path d="M29.9489 16.5807L31.1002 14.7951L52.3536 28.5081L70.8396 16.5807L52.3553 4.65506L31.1019 18.3664L29.9489 16.5807L28.7976 14.7951L51.2023 0.338588C51.9021 -0.112863 52.8067 -0.112863 53.5066 0.338588L75.9113 14.7951C76.5205 15.1878 76.8847 15.8557 76.8847 16.5807C76.8847 17.3057 76.5205 17.9737 75.9113 18.3664L53.5066 32.8229C52.8067 33.2744 51.9021 33.2744 51.2023 32.8229L28.7976 18.3664C28.1884 17.9737 27.8242 17.3057 27.8242 16.5807C27.8242 15.8557 28.1884 15.1878 28.7976 14.7951L29.9489 16.5807Z" fill="white"/>
<path d="M72.6228 20.4896L72.6094 25.3767C73.1531 25.3179 73.7036 25.2894 74.2591 25.2894H74.4068L74.5545 25.3028C74.7894 25.328 75.0244 25.3481 75.2593 25.3683C75.7494 25.4086 76.2931 25.4539 76.8604 25.5445L76.8889 16.5876L72.6396 16.5742L72.6228 20.4896Z" fill="white"/>
<path d="M50.2285 30.7149L50.2319 32.2001L50.2822 52.4281L50.2906 56.3318C50.294 57.0551 50.6649 57.7264 51.2657 58.1141C51.3076 58.1392 51.3513 58.1644 51.3932 58.1879C52.0712 58.5622 52.9003 58.5336 53.5515 58.1191L62.3824 52.5204C61.3688 51.4497 60.533 50.2984 59.8751 49.0783L54.5316 52.4667L54.4812 32.1934L54.4779 30.7031L50.2285 30.7149Z" fill="white"/>
<path d="M32.0736 16.564L32.2733 40.85L53.5653 54.5378L51.2678 58.1125L29.0091 43.8037C28.4049 43.4161 28.039 42.7515 28.034 42.0332L27.8242 16.5992L32.0736 16.564Z" fill="white"/>
<path d="M66.5899 52.4755C68.718 54.0682 70.5003 55.9579 71.8479 58.2504C72.2071 58.863 72.5679 59.4722 72.9388 60.073C73.5983 61.1404 74.9309 61.1437 75.577 60.0646C76.4665 58.5793 77.3643 57.1058 78.4921 55.7834C79.7189 54.3468 81.1505 53.1368 82.6173 51.9553C85.576 49.5755 87.2526 46.464 87.5665 42.6795C88.1471 35.7551 83.5034 29.6865 76.6662 28.3909C75.8724 28.2382 75.0567 28.2096 74.2495 28.124C68.0081 28.1156 62.302 32.7023 61.1759 38.8347C60.1421 44.4686 62.0083 49.0401 66.5899 52.4755Z" fill="white"/>
<path d="M17.0576 75.2586C16.1608 74.4866 15.083 73.9144 13.8554 73.5399C12.6257 73.1654 11.242 72.9844 9.70645 72.9844H0.740728C0.545142 72.9844 0.355799 73.0634 0.216392 73.2008C0.0790664 73.3381 0 73.5295 0 73.7251V97.5886C0 97.7842 0.0790664 97.9735 0.216392 98.1129C0.353718 98.2503 0.545142 98.3293 0.740728 98.3293H3.46852C3.66411 98.3293 3.85345 98.2503 3.99286 98.1129C4.13018 97.9756 4.20925 97.7842 4.20925 97.5886V90.6932H9.70645C11.2441 90.6932 12.6298 90.5059 13.8616 90.1168C15.0934 89.7298 16.1712 89.1368 17.068 88.3399C17.9647 87.5451 18.6451 86.5755 19.0925 85.4582C19.5398 84.3408 19.7541 83.0841 19.7541 81.7004C19.7541 80.3604 19.5377 79.1391 19.0883 78.055C18.6389 76.971 17.9543 76.0284 17.0576 75.2586ZM4.20925 76.8503H9.60449C10.6303 76.8503 11.5187 76.9647 12.2719 77.1791C13.0272 77.3955 13.6452 77.7096 14.1487 78.1174C14.646 78.5211 15.0081 79.0038 15.2598 79.601C15.5095 80.1981 15.6448 80.9139 15.6448 81.7691C15.6448 82.6471 15.5095 83.3899 15.2557 84.0079C15.0018 84.6259 14.6377 85.1273 14.1363 85.5476C13.6306 85.97 13.0148 86.2946 12.2615 86.5172C11.5104 86.7399 10.622 86.8585 9.60033 86.8585H4.20925V76.8503Z" fill="white"/>
<path d="M25.7963 78.9146H23.1704C22.9748 78.9146 22.7855 78.9936 22.6461 79.1309C22.5088 79.2683 22.4297 79.4597 22.4297 79.6553V97.5867C22.4297 97.7823 22.5088 97.9716 22.6461 98.1111C22.7834 98.2484 22.9748 98.3274 23.1704 98.3274H25.7963C25.9918 98.3274 26.1812 98.2484 26.3206 98.1111C26.4579 97.9737 26.537 97.7823 26.537 97.5867V79.6553C26.537 79.4597 26.4579 79.2703 26.3206 79.1309C26.1812 78.9936 25.9918 78.9146 25.7963 78.9146Z" fill="white"/>
<path d="M26.2351 72.7746C26.0042 72.5436 25.7295 72.3584 25.4257 72.2398C25.124 72.1192 24.7973 72.063 24.4665 72.063C24.1419 72.063 23.8215 72.1212 23.524 72.2398C23.2264 72.3584 22.9559 72.5395 22.7229 72.7642C22.4857 72.9931 22.2943 73.2698 22.1694 73.5736C22.0446 73.8774 21.9863 74.2082 21.9863 74.5411C21.9863 74.8678 22.0467 75.1923 22.1715 75.4899C22.2964 75.7895 22.4836 76.06 22.7146 76.291C22.9455 76.5219 23.216 76.7092 23.5156 76.834C23.8153 76.9589 24.1378 77.0192 24.4644 77.0192C24.7973 77.0192 25.1282 76.9609 25.432 76.8361C25.7357 76.7113 26.0125 76.5198 26.2414 76.2826C26.4661 76.0496 26.6471 75.7791 26.7657 75.4816C26.8864 75.184 26.9425 74.8636 26.9425 74.539C26.9425 74.2082 26.8864 73.8815 26.7657 73.5798C26.6492 73.2802 26.4661 73.0055 26.2351 72.7746Z" fill="white"/>
<path d="M45.5799 92.5969C45.4343 92.4513 45.2324 92.3722 45.0264 92.3805C44.8204 92.3888 44.6269 92.4825 44.4917 92.6406C43.9049 93.3272 43.2037 93.837 42.3507 94.1928C41.4955 94.5486 40.5405 94.7317 39.4647 94.7317C38.9092 94.7317 38.3932 94.6672 37.9105 94.5382C37.4277 94.4113 36.9783 94.2219 36.5559 93.9681C36.1294 93.7122 35.7549 93.4105 35.424 93.0567C35.0932 92.703 34.8061 92.2994 34.5626 91.8375C34.0799 90.9219 33.8302 89.8629 33.8302 88.6207C33.8302 87.3785 34.0799 86.3278 34.5605 85.4247C34.804 84.9691 35.089 84.5696 35.4199 84.2221C35.7507 83.8746 36.1231 83.5792 36.5497 83.3274C37.3965 82.8301 38.3495 82.5784 39.4627 82.5784C40.4697 82.5784 41.3603 82.751 42.1592 83.084C42.9728 83.4252 43.6657 83.885 44.2566 84.4759C44.4022 84.6216 44.602 84.7007 44.808 84.6923C45.014 84.684 45.2075 84.5925 45.3406 84.4364L46.8408 82.697C47.0947 82.4015 47.078 81.9645 46.8034 81.6899C45.9107 80.7952 44.8246 80.0982 43.57 79.5988C42.3007 79.0932 40.8921 78.8477 39.3586 78.8477C37.5214 78.8456 35.8464 79.2617 34.3858 80.1044C32.9334 80.9388 31.7786 82.1081 30.9568 83.5708C30.1266 85.044 29.7188 86.7439 29.7188 88.6207C29.7167 90.4975 30.1245 92.2016 30.9547 93.6872C31.3667 94.4238 31.8598 95.0854 32.4341 95.6659C33.0083 96.2465 33.6617 96.7437 34.3899 97.1578C35.8506 97.988 37.5234 98.3979 39.3586 98.3958C40.9878 98.3958 42.4817 98.1128 43.8134 97.5323C45.1346 96.958 46.2499 96.1424 47.1217 95.0937C47.3672 94.8004 47.3464 94.3655 47.0759 94.095L45.5799 92.5969Z" fill="white"/>
<path d="M60.8196 86.6899L67.1345 80.1711C67.3405 79.9568 67.4009 79.6405 67.2843 79.3659C67.1678 79.0912 66.8994 78.9144 66.6019 78.9144H63.4663C63.2665 78.9144 63.0751 78.9955 62.9357 79.1391L54.9687 87.3329V72.2915C54.9687 72.0959 54.8896 71.9066 54.7523 71.7672C54.615 71.6298 54.4236 71.5508 54.228 71.5508H51.5689C51.3733 71.5508 51.1839 71.6298 51.0445 71.7672C50.9072 71.9045 50.8281 72.0959 50.8281 72.2915V97.5865C50.8281 97.7821 50.9072 97.9715 51.0445 98.1109C51.1818 98.2482 51.3733 98.3273 51.5689 98.3273H54.228C54.4236 98.3273 54.6129 98.2482 54.7523 98.1109C54.8896 97.9735 54.9687 97.7821 54.9687 97.5865V92.7302L57.9545 89.6466L63.5308 97.9964C63.6681 98.2024 63.8991 98.3252 64.1467 98.3252H67.3176C67.5923 98.3252 67.8441 98.1733 67.9731 97.9319C68.1021 97.6906 68.0854 97.3951 67.9314 97.1683L60.8196 86.6899Z" fill="white"/>
<path d="M89.9867 72.9826H87.2943C87.0987 72.9826 86.9094 73.0616 86.77 73.1989C86.6326 73.3363 86.5536 73.5277 86.5536 73.7233V87.8699C86.5536 89.0102 86.4017 89.9943 86.1125 90.8328C85.8232 91.6714 85.4009 92.3642 84.837 92.9427C84.269 93.5232 83.6073 93.9539 82.8208 94.2494C82.0343 94.5427 81.1209 94.6967 80.068 94.6967C79.0152 94.6967 78.0997 94.5406 77.3111 94.2452C76.5205 93.9476 75.8546 93.5128 75.2804 92.926C74.7102 92.3413 74.2837 91.6443 73.9924 90.8079C73.7011 89.9735 73.5471 88.9956 73.5471 87.8678V73.7212C73.5471 73.5256 73.4681 73.3363 73.3307 73.1969C73.1934 73.0595 73.002 72.9805 72.8064 72.9805H70.0786C69.883 72.9805 69.6937 73.0595 69.5543 73.1969C69.417 73.3342 69.3379 73.5256 69.3379 73.7212V87.8678C69.3379 90.0297 69.754 91.9356 70.6196 93.5523C71.0503 94.3575 71.5809 95.0775 72.2093 95.6975C72.8376 96.3196 73.5617 96.844 74.3732 97.2684C75.9982 98.1174 77.9083 98.5293 80.068 98.5293C82.2278 98.5293 84.1337 98.1194 85.7483 97.2684C86.5536 96.844 87.2735 96.3196 87.8956 95.6975C88.5177 95.0754 89.0442 94.3555 89.4686 93.5502C90.3196 91.9356 90.7295 90.0297 90.7295 87.8699V73.7233C90.7295 73.5277 90.6505 73.3384 90.5131 73.1989C90.3737 73.0616 90.1823 72.9826 89.9867 72.9826Z" fill="white"/>
<path d="M114.264 83.6022C113.479 82.127 112.364 80.9493 110.955 80.1108C110.246 79.6884 109.48 79.37 108.665 79.1599C107.849 78.9497 106.985 78.8457 106.076 78.8457C105.213 78.8457 104.391 78.9456 103.617 79.1474C102.843 79.3492 102.117 79.6551 101.447 80.0608C100.876 80.4062 100.358 80.8182 99.8964 81.2905V79.653C99.8964 79.4574 99.8174 79.2681 99.6801 79.1287C99.5427 78.9914 99.3513 78.9123 99.1557 78.9123H96.4966C96.301 78.9123 96.1117 78.9914 95.9723 79.1287C95.8349 79.266 95.7559 79.4574 95.7559 79.653V104.201C95.7559 104.397 95.8349 104.586 95.9723 104.725C96.1096 104.863 96.301 104.942 96.4966 104.942H99.1557C99.3513 104.942 99.5406 104.863 99.6801 104.725C99.8174 104.588 99.8964 104.397 99.8964 104.201V95.9532C100.358 96.4234 100.876 96.8333 101.447 97.1808C102.117 97.5886 102.847 97.8945 103.627 98.0963C104.407 98.2981 105.236 98.3959 106.109 98.3959C107.017 98.3959 107.878 98.294 108.692 98.088C109.503 97.882 110.267 97.5678 110.97 97.1517C111.669 96.7376 112.297 96.2383 112.847 95.6557C113.398 95.0751 113.868 94.4114 114.262 93.6748C115.052 92.1955 115.441 90.508 115.439 88.6562C115.443 86.7815 115.056 85.0836 114.264 83.6022ZM100.629 85.4249C101.118 84.5114 101.777 83.8082 102.647 83.2693C103.076 83.005 103.529 82.8094 104.02 82.6763C104.509 82.5431 105.034 82.4765 105.6 82.4765C106.166 82.4765 106.688 82.5452 107.173 82.6763C107.66 82.8094 108.109 83.005 108.531 83.2672C109.389 83.804 110.046 84.5094 110.537 85.4249C111.018 86.3279 111.267 87.3807 111.267 88.6208C111.267 89.838 111.018 90.8846 110.535 91.8022C110.044 92.7281 109.391 93.4293 108.538 93.9536C108.115 94.2116 107.664 94.4052 107.177 94.5342C106.69 94.6632 106.166 94.7297 105.6 94.7297C105.034 94.7297 104.507 94.6632 104.016 94.5321C103.525 94.401 103.072 94.2096 102.643 93.9495C102.21 93.6873 101.829 93.3815 101.497 93.0257C101.164 92.6699 100.874 92.2641 100.631 91.8022C100.148 90.8846 99.8985 89.8359 99.8985 88.6208C99.8985 87.3807 100.148 86.3279 100.629 85.4249Z" fill="white"/>
</svg>
