<svg width="24" height="24" viewBox="0 0 24 24" fill="none" xmlns="http://www.w3.org/2000/svg">
<g id="solar:question-circle-line-duotone">
<g id="Group">
<path id="Vector" opacity="0.5" d="M12 22C17.5228 22 22 17.5228 22 12C22 6.47715 17.5228 2 12 2C6.47715 2 2 6.47715 2 12C2 17.5228 6.47715 22 12 22Z" stroke="#1C74F2" stroke-width="1.5"/>
<path id="Vector_2" d="M10.125 8.87524C10.125 8.54688 10.2113 8.22429 10.3752 7.93974C10.5391 7.6552 10.7748 7.41868 11.0588 7.25384C11.3428 7.08901 11.6651 7.00165 11.9934 7.0005C12.3218 6.99935 12.6447 7.08445 12.9298 7.24728C13.215 7.41012 13.4523 7.64498 13.6182 7.92837C13.7841 8.21176 13.8726 8.53374 13.875 8.86209C13.8773 9.19044 13.7934 9.51365 13.6316 9.79938C13.4698 10.0851 13.2358 10.3233 12.953 10.4902C12.478 10.7712 12 11.1982 12 11.7502V13.0002" stroke="#1C74F2" stroke-width="1.5" stroke-linecap="round"/>
<path id="Vector_3" d="M12 17C12.5523 17 13 16.5523 13 16C13 15.4477 12.5523 15 12 15C11.4477 15 11 15.4477 11 16C11 16.5523 11.4477 17 12 17Z" fill="#1C74F2"/>
</g>
</g>
</svg>
